Coordinates
version=1
nRows=11
nColumns=40
inDegrees=yes

Units are S.I. units (second, meters, Newtons, ...)
Angles are in degrees.

endheader
time	pelvis_tilt	pelvis_list	pelvis_rotation	pelvis_tx	pelvis_ty	pelvis_tz	hip_flexion_r	hip_adduction_r	hip_rotation_r	knee_angle_r	knee_angle_r_beta	ankle_angle_r	subtalar_angle_r	mtp_angle_r	hip_flexion_l	hip_adduction_l	hip_rotation_l	knee_angle_l	knee_angle_l_beta	ankle_angle_l	subtalar_angle_l	mtp_angle_l	lumbar_extension	lumbar_bending	lumbar_rotation	arm_flex_r	arm_add_r	arm_rot_r	elbow_flex_r	pro_sup_r	wrist_flex_r	wrist_dev_r	arm_flex_l	arm_add_l	arm_rot_l	elbow_flex_l	pro_sup_l	wrist_flex_l	wrist_dev_l
     34.08500000	     -5.60394628	     -4.98291815	      0.39449416	      1.05385696	      0.91122651	      0.48703096	     27.15101703	      0.59155179	    -12.54135096	     27.01823872	     27.01823872	      7.02559882	     -5.35781294	     -1.69945783	      8.55514532	    -11.86776141	     -2.39015501	     44.38027958	     44.38027958	     11.94582350	    -16.37947308	     -7.26626144	    -12.13606930	      6.66864622	      2.63373365	    -13.75189756	    -11.47798308	     -2.31469680	     26.91265562	     46.23604382	      0.00000000	      0.00000000	     16.55036081	    -15.97928547	     -5.09731792	    107.04471823	     48.32689058	      0.00000000	      0.00000000
     34.09657143	     -5.66088837	     -5.15474595	      0.66343509	      1.05293510	      0.91255593	      0.48962480	     26.40521230	      0.80591676	    -13.22900639	     26.55592851	     26.55592851	      7.48228211	     -4.60693514	     -1.75845957	     10.79272033	    -12.36155386	     -1.79938168	     48.24379869	     48.24379869	     10.20482380	    -17.57368197	     -6.31689814	    -12.19035842	      6.81233639	      2.62867449	    -12.60771961	    -11.63900989	     -2.22587592	     27.49625475	     46.21408616	      0.00000000	      0.00000000	     15.29311241	    -15.50619333	     -5.09108967	    106.23276405	     48.30839143	      0.00000000	      0.00000000
     34.10814286	     -5.71912580	     -5.32459636	      0.85910855	      1.05194419	      0.91387262	      0.49219432	     25.64017168	      1.06345335	    -13.83983147	     26.04642936	     26.04642936	      7.87685788	     -3.81817052	     -1.81631299	     13.08461206	    -12.89873802	     -1.42100212	     51.97862936	     51.97862936	      8.82610827	    -18.28931177	     -4.96145751	    -12.25012371	      6.96769307	      2.69264665	    -11.33102634	    -11.83543333	     -2.15659325	     28.15177979	     46.19171944	      0.00000000	      0.00000000	     14.01376222	    -15.03665286	     -4.97489898	    105.21476293	     48.27775445	      0.00000000	      0.00000000
     34.11971429	     -5.83893717	     -5.18321073	      1.10984672	      1.05076713	      0.91524505	      0.49418205	     24.93172310	      0.79181097	    -14.92897247	     25.60341820	     25.60341820	      8.52610332	     -1.95043090	     -1.75749017	     15.76569396	    -12.68389468	     -0.54633486	     56.11434429	     56.11434429	     10.74343851	    -18.29489661	      4.74290891	    -12.18799209	      6.81952443	      2.34374983	    -10.20081903	    -12.27524486	     -1.39231257	     29.58371982	     46.07990364	      0.00000000	      0.00000000	     12.75896363	    -14.50848466	     -5.84038097	    102.62482737	     48.30145074	      0.00000000	      0.00000000
     34.13128571	     -5.93962375	     -5.34131649	      1.23690269	      1.04949257	      0.91646469	      0.49665198	     24.20855670	      1.14858863	    -15.23189040	     24.99979440	     24.99979440	      8.89399445	     -1.50510741	     -1.42234930	     18.31664129	    -13.09614853	     -0.15791510	     59.65912072	     59.65912072	     11.51687604	    -18.41508413	     10.26766982	    -12.23187737	      6.89677772	      2.88983286	     -9.17463981	    -12.72477771	     -0.41134859	     30.58644533	     45.97529592	      0.00000000	      0.00000000	     11.75243101	    -14.10723317	     -4.93073874	    101.16920894	     48.25037790	      0.00000000	      0.00000000
     34.14285714	     -5.95339951	     -5.46207330	      1.37379007	      1.04830650	      0.91779439	      0.49903256	     23.35517728	      1.43956849	    -15.64427045	     24.35384081	     24.35384081	      9.21918098	     -0.79549906	     -1.44226438	     20.54715161	    -13.58671633	     -0.02216880	     62.42687876	     62.42687876	     10.99302145	    -18.77529339	     11.34015759	    -12.32478110	      6.94298491	      2.98404884	     -7.62860009	    -13.05353034	     -0.37350357	     31.33871579	     45.95421586	      0.00000000	      0.00000000	     10.51205886	    -13.85657965	     -4.63287485	     99.10932649	     48.19475769	      0.00000000	      0.00000000
     34.15442857	     -5.97609267	     -5.53224600	      1.49547938	      1.04696963	      0.91906776	      0.50125536	     22.55573943	      1.65918651	    -16.06983191	     23.76266495	     23.76266495	      9.49288690	     -0.03103074	     -1.43005515	     22.87820580	    -13.95066059	      0.16410351	     65.01487078	     65.01487078	     11.51763922	    -18.93216533	     14.46957977	    -12.37287671	      6.94627365	      3.55234917	     -6.32310579	    -13.43380649	     -0.24364674	     32.09135258	     45.92451016	      0.00000000	      0.00000000	      9.84446815	    -13.22001961	     -4.09992539	     95.99447971	     48.12118875	      0.00000000	      0.00000000
     34.16600000	     -5.95954496	     -5.66700352	      1.64343651	      1.04568147	      0.92032860	      0.50342710	     21.69262703	      2.00720401	    -16.33046813	     23.10041171	     23.10041171	      9.74040167	      0.36959125	     -1.39025578	     25.03492107	    -14.43758004	      0.28212317	     66.98755999	     66.98755999	     11.31638163	    -19.07763180	     14.65245358	    -12.49624072	      6.97960933	      3.64757260	     -4.57184829	    -13.76915469	     -0.38170583	     32.85276625	     45.91632090	      0.00000000	      0.00000000	      8.39533591	    -13.05126403	     -3.60902412	     94.16392748	     48.04808472	      0.00000000	      0.00000000
     34.17757143	     -5.85799726	     -5.66107764	      1.79454566	      1.04428878	      0.92180910	      0.50541080	     20.73626247	      2.17660184	    -16.66164255	     22.44102188	     22.44102188	      9.99859824	      1.07552728	     -1.41111360	     27.04250836	    -14.66771230	      0.41811281	     68.52926074	     68.52926074	     11.67580282	    -19.14181599	     15.96933327	    -12.65135671	      6.90531805	      3.88471708	     -2.73679445	    -14.05355415	     -0.50431140	     33.49203956	     45.91187161	      0.00000000	      0.00000000	      7.77324351	    -12.67677550	     -3.28346201	     89.98862699	     47.95665316	      0.00000000	      0.00000000
     34.18914286	     -5.83513550	     -5.72151642	      1.98373103	      1.04281376	      0.92300003	      0.50722639	     19.88783454	      2.42263049	    -16.92658879	     21.78619791	     21.78619791	     10.22761314	      1.54061082	     -1.41840075	     29.13329815	    -14.87717294	      0.68491747	     69.68010634	     69.68010634	     12.03645800	    -19.16168854	     16.90813664	    -12.72100924	      6.89202825	      4.44959614	     -1.06258855	    -14.38627713	     -0.85399637	     34.11612274	     45.91924097	      0.00000000	      0.00000000	      7.21712707	    -12.18920336	     -2.57295725	     86.18033725	     47.85596675	      0.00000000	      0.00000000
     34.20071429	     -5.74820063	     -5.73310405	      2.18536438	      1.04134084	      0.92421292	      0.50885535	     18.97511461	      2.61579316	    -17.17556265	     21.14081585	     21.14081585	     10.48890238	      1.97041241	     -1.46535427	     31.01715749	    -14.98813955	      0.90966466	     70.29322244	     70.29322244	     12.16540455	    -19.16518104	     17.02813052	    -12.86399791	      6.83287507	      4.69338847	      0.95329764	    -14.67192302	     -1.21610688	     34.82702927	     45.92568235	      0.00000000	      0.00000000	      6.44095562	    -11.84390855	     -2.17288926	     82.41944415	     47.77165185	      0.00000000	      0.00000000
